<?xml version="1.0" standalone="no"?>
<!DOCTYPE svg PUBLIC "-//W3C//DTD SVG 20010904//EN"
 "http://www.w3.org/TR/2001/REC-SVG-20010904/DTD/svg10.dtd">
<svg version="1.0" xmlns="http://www.w3.org/2000/svg"
 width="960.000000pt" height="960.000000pt" viewBox="0 0 960.000000 960.000000"
 preserveAspectRatio="xMidYMid meet">
<metadata>
Created by potrace 1.11, written by Peter Selinger 2001-2013
</metadata>
<g transform="translate(0.000000,960.000000) scale(0.100000,-0.100000)"
fill="#000000" stroke="none">
<path d="M0 4800 l0 -4800 4800 0 4800 0 0 4800 0 4800 -4800 0 -4800 0 0
-4800z m5698 515 c46 -14 85 -32 88 -40 3 -7 -6 -35 -20 -63 l-25 -49 -88 25
c-68 19 -113 25 -198 25 -135 1 -198 -20 -278 -93 -107 -98 -142 -207 -134
-425 7 -216 49 -317 161 -393 99 -66 225 -80 438 -49 54 8 100 12 103 9 3 -3
5 -27 5 -53 0 -63 -18 -75 -135 -89 -419 -48 -629 68 -716 395 -31 116 -31
301 0 410 62 222 204 363 412 410 100 23 283 14 387 -20z m-2413 4 c153 -16
231 -70 276 -189 28 -72 30 -186 6 -257 -24 -67 -91 -142 -162 -179 -30 -16
-55 -31 -55 -34 0 -3 72 -126 159 -273 l159 -267 -72 0 c-47 0 -79 5 -93 15
-12 8 -76 111 -143 227 -68 117 -132 223 -143 236 -19 20 -29 22 -139 22
l-118 0 0 -250 0 -250 -70 0 -70 0 0 611 0 612 188 -7 c103 -4 228 -11 277
-17z m1014 -3 c10 -12 471 -1178 471 -1191 0 -11 -138 -5 -147 8 -6 6 -38 86
-73 177 -35 91 -70 173 -78 183 -14 15 -38 17 -237 17 -162 0 -225 -3 -237
-12 -9 -7 -44 -85 -77 -173 -82 -213 -77 -207 -154 -203 -49 2 -61 6 -59 18 2
8 107 279 234 602 l231 587 36 3 c48 4 78 -2 90 -16z m3619 -1 c190 -44 334
-187 388 -385 25 -93 23 -288 -5 -392 -43 -163 -125 -276 -248 -341 -120 -62
-160 -69 -440 -74 l-253 -5 0 606 0 605 93 4 c152 7 398 -3 465 -18z m-7338
-590 l0 -605 -65 0 -65 0 0 605 0 605 65 0 65 0 0 -605z m1103 545 l0 -55
-192 -3 -191 -2 -2 -543 -3 -542 -67 -3 -68 -3 -2 543 -3 543 -192 3 -193 2 0
60 0 60 456 -2 457 -3 0 -55z m867 0 l0 -60 -265 0 -265 0 0 -195 0 -195 245
0 245 0 0 -65 0 -65 -250 0 -250 0 0 -220 0 -220 270 0 271 0 -3 -62 -3 -63
-335 0 -335 0 -3 603 -2 602 340 0 340 0 0 -60z m6728 -2 l3 -58 -271 0 -270
0 0 -195 0 -195 250 0 250 0 0 -65 0 -65 -250 0 -250 0 0 -220 0 -220 268 -2
267 -3 0 -60 0 -60 -335 0 -335 0 -3 603 -2 602 337 -2 338 -3 3 -57z"/>
<path d="M2960 4982 l0 -232 133 0 c198 0 275 30 318 125 25 55 25 166 0 221
-37 81 -90 100 -310 110 l-141 7 0 -231z"/>
<path d="M4142 4902 c-51 -137 -92 -252 -92 -255 0 -4 83 -7 185 -7 102 0 185
4 185 8 0 9 -179 494 -184 499 -1 2 -44 -109 -94 -245z"/>
<path d="M7500 4737 l0 -484 83 -7 c162 -13 320 19 420 84 109 73 169 216 170
400 0 152 -37 269 -110 350 -83 93 -121 103 -490 135 l-73 6 0 -484z"/>
</g>
</svg>
